%TF.GenerationSoftware,KiCad,Pcbnew,7.0.8*%
%TF.CreationDate,2023-11-08T21:29:47-08:00*%
%TF.ProjectId,ff,66662e6b-6963-4616-945f-706362585858,rev?*%
%TF.SameCoordinates,Original*%
%TF.FileFunction,Legend,Top*%
%TF.FilePolarity,Positive*%
%FSLAX46Y46*%
G04 Gerber Fmt 4.6, Leading zero omitted, Abs format (unit mm)*
G04 Created by KiCad (PCBNEW 7.0.8) date 2023-11-08 21:29:47*
%MOMM*%
%LPD*%
G01*
G04 APERTURE LIST*
%ADD10C,0.150000*%
%ADD11C,0.120000*%
%ADD12C,0.100000*%
G04 APERTURE END LIST*
D10*
X127866666Y-94534819D02*
X127533333Y-94058628D01*
X127295238Y-94534819D02*
X127295238Y-93534819D01*
X127295238Y-93534819D02*
X127676190Y-93534819D01*
X127676190Y-93534819D02*
X127771428Y-93582438D01*
X127771428Y-93582438D02*
X127819047Y-93630057D01*
X127819047Y-93630057D02*
X127866666Y-93725295D01*
X127866666Y-93725295D02*
X127866666Y-93868152D01*
X127866666Y-93868152D02*
X127819047Y-93963390D01*
X127819047Y-93963390D02*
X127771428Y-94011009D01*
X127771428Y-94011009D02*
X127676190Y-94058628D01*
X127676190Y-94058628D02*
X127295238Y-94058628D01*
X128295238Y-94011009D02*
X128628571Y-94011009D01*
X128771428Y-94534819D02*
X128295238Y-94534819D01*
X128295238Y-94534819D02*
X128295238Y-93534819D01*
X128295238Y-93534819D02*
X128771428Y-93534819D01*
X129533333Y-94011009D02*
X129200000Y-94011009D01*
X129200000Y-94534819D02*
X129200000Y-93534819D01*
X129200000Y-93534819D02*
X129676190Y-93534819D01*
X130200000Y-93534819D02*
X130200000Y-93772914D01*
X129961905Y-93677676D02*
X130200000Y-93772914D01*
X130200000Y-93772914D02*
X130438095Y-93677676D01*
X130057143Y-93963390D02*
X130200000Y-93772914D01*
X130200000Y-93772914D02*
X130342857Y-93963390D01*
X130961905Y-93534819D02*
X130961905Y-93772914D01*
X130723810Y-93677676D02*
X130961905Y-93772914D01*
X130961905Y-93772914D02*
X131200000Y-93677676D01*
X130819048Y-93963390D02*
X130961905Y-93772914D01*
X130961905Y-93772914D02*
X131104762Y-93963390D01*
X150666666Y-100834819D02*
X150333333Y-100358628D01*
X150095238Y-100834819D02*
X150095238Y-99834819D01*
X150095238Y-99834819D02*
X150476190Y-99834819D01*
X150476190Y-99834819D02*
X150571428Y-99882438D01*
X150571428Y-99882438D02*
X150619047Y-99930057D01*
X150619047Y-99930057D02*
X150666666Y-100025295D01*
X150666666Y-100025295D02*
X150666666Y-100168152D01*
X150666666Y-100168152D02*
X150619047Y-100263390D01*
X150619047Y-100263390D02*
X150571428Y-100311009D01*
X150571428Y-100311009D02*
X150476190Y-100358628D01*
X150476190Y-100358628D02*
X150095238Y-100358628D01*
X151095238Y-100311009D02*
X151428571Y-100311009D01*
X151571428Y-100834819D02*
X151095238Y-100834819D01*
X151095238Y-100834819D02*
X151095238Y-99834819D01*
X151095238Y-99834819D02*
X151571428Y-99834819D01*
X152333333Y-100311009D02*
X152000000Y-100311009D01*
X152000000Y-100834819D02*
X152000000Y-99834819D01*
X152000000Y-99834819D02*
X152476190Y-99834819D01*
X153000000Y-99834819D02*
X153000000Y-100072914D01*
X152761905Y-99977676D02*
X153000000Y-100072914D01*
X153000000Y-100072914D02*
X153238095Y-99977676D01*
X152857143Y-100263390D02*
X153000000Y-100072914D01*
X153000000Y-100072914D02*
X153142857Y-100263390D01*
X153761905Y-99834819D02*
X153761905Y-100072914D01*
X153523810Y-99977676D02*
X153761905Y-100072914D01*
X153761905Y-100072914D02*
X154000000Y-99977676D01*
X153619048Y-100263390D02*
X153761905Y-100072914D01*
X153761905Y-100072914D02*
X153904762Y-100263390D01*
X171946666Y-94534819D02*
X171613333Y-94058628D01*
X171375238Y-94534819D02*
X171375238Y-93534819D01*
X171375238Y-93534819D02*
X171756190Y-93534819D01*
X171756190Y-93534819D02*
X171851428Y-93582438D01*
X171851428Y-93582438D02*
X171899047Y-93630057D01*
X171899047Y-93630057D02*
X171946666Y-93725295D01*
X171946666Y-93725295D02*
X171946666Y-93868152D01*
X171946666Y-93868152D02*
X171899047Y-93963390D01*
X171899047Y-93963390D02*
X171851428Y-94011009D01*
X171851428Y-94011009D02*
X171756190Y-94058628D01*
X171756190Y-94058628D02*
X171375238Y-94058628D01*
X172375238Y-94011009D02*
X172708571Y-94011009D01*
X172851428Y-94534819D02*
X172375238Y-94534819D01*
X172375238Y-94534819D02*
X172375238Y-93534819D01*
X172375238Y-93534819D02*
X172851428Y-93534819D01*
X173613333Y-94011009D02*
X173280000Y-94011009D01*
X173280000Y-94534819D02*
X173280000Y-93534819D01*
X173280000Y-93534819D02*
X173756190Y-93534819D01*
X174280000Y-93534819D02*
X174280000Y-93772914D01*
X174041905Y-93677676D02*
X174280000Y-93772914D01*
X174280000Y-93772914D02*
X174518095Y-93677676D01*
X174137143Y-93963390D02*
X174280000Y-93772914D01*
X174280000Y-93772914D02*
X174422857Y-93963390D01*
X175041905Y-93534819D02*
X175041905Y-93772914D01*
X174803810Y-93677676D02*
X175041905Y-93772914D01*
X175041905Y-93772914D02*
X175280000Y-93677676D01*
X174899048Y-93963390D02*
X175041905Y-93772914D01*
X175041905Y-93772914D02*
X175184762Y-93963390D01*
X162594819Y-74003333D02*
X162118628Y-74336666D01*
X162594819Y-74574761D02*
X161594819Y-74574761D01*
X161594819Y-74574761D02*
X161594819Y-74193809D01*
X161594819Y-74193809D02*
X161642438Y-74098571D01*
X161642438Y-74098571D02*
X161690057Y-74050952D01*
X161690057Y-74050952D02*
X161785295Y-74003333D01*
X161785295Y-74003333D02*
X161928152Y-74003333D01*
X161928152Y-74003333D02*
X162023390Y-74050952D01*
X162023390Y-74050952D02*
X162071009Y-74098571D01*
X162071009Y-74098571D02*
X162118628Y-74193809D01*
X162118628Y-74193809D02*
X162118628Y-74574761D01*
X162071009Y-73574761D02*
X162071009Y-73241428D01*
X162594819Y-73098571D02*
X162594819Y-73574761D01*
X162594819Y-73574761D02*
X161594819Y-73574761D01*
X161594819Y-73574761D02*
X161594819Y-73098571D01*
X162071009Y-72336666D02*
X162071009Y-72669999D01*
X162594819Y-72669999D02*
X161594819Y-72669999D01*
X161594819Y-72669999D02*
X161594819Y-72193809D01*
X161594819Y-71669999D02*
X161832914Y-71669999D01*
X161737676Y-71908094D02*
X161832914Y-71669999D01*
X161832914Y-71669999D02*
X161737676Y-71431904D01*
X162023390Y-71812856D02*
X161832914Y-71669999D01*
X161832914Y-71669999D02*
X162023390Y-71527142D01*
X161594819Y-70908094D02*
X161832914Y-70908094D01*
X161737676Y-71146189D02*
X161832914Y-70908094D01*
X161832914Y-70908094D02*
X161737676Y-70669999D01*
X162023390Y-71050951D02*
X161832914Y-70908094D01*
X161832914Y-70908094D02*
X162023390Y-70765237D01*
X151153033Y-77776666D02*
X150453033Y-77776666D01*
X150453033Y-77776666D02*
X150953033Y-77543333D01*
X150953033Y-77543333D02*
X150453033Y-77309999D01*
X150453033Y-77309999D02*
X151153033Y-77309999D01*
X150786366Y-76976666D02*
X150786366Y-76743333D01*
X151153033Y-76643333D02*
X151153033Y-76976666D01*
X151153033Y-76976666D02*
X150453033Y-76976666D01*
X150453033Y-76976666D02*
X150453033Y-76643333D01*
X150486366Y-75976666D02*
X150453033Y-76043333D01*
X150453033Y-76043333D02*
X150453033Y-76143333D01*
X150453033Y-76143333D02*
X150486366Y-76243333D01*
X150486366Y-76243333D02*
X150553033Y-76310000D01*
X150553033Y-76310000D02*
X150619700Y-76343333D01*
X150619700Y-76343333D02*
X150753033Y-76376666D01*
X150753033Y-76376666D02*
X150853033Y-76376666D01*
X150853033Y-76376666D02*
X150986366Y-76343333D01*
X150986366Y-76343333D02*
X151053033Y-76310000D01*
X151053033Y-76310000D02*
X151119700Y-76243333D01*
X151119700Y-76243333D02*
X151153033Y-76143333D01*
X151153033Y-76143333D02*
X151153033Y-76076666D01*
X151153033Y-76076666D02*
X151119700Y-75976666D01*
X151119700Y-75976666D02*
X151086366Y-75943333D01*
X151086366Y-75943333D02*
X150853033Y-75943333D01*
X150853033Y-75943333D02*
X150853033Y-76076666D01*
X150953033Y-75676666D02*
X150953033Y-75343333D01*
X151153033Y-75743333D02*
X150453033Y-75510000D01*
X150453033Y-75510000D02*
X151153033Y-75276666D01*
X150453033Y-75110000D02*
X150453033Y-74676666D01*
X150453033Y-74676666D02*
X150719700Y-74910000D01*
X150719700Y-74910000D02*
X150719700Y-74810000D01*
X150719700Y-74810000D02*
X150753033Y-74743333D01*
X150753033Y-74743333D02*
X150786366Y-74710000D01*
X150786366Y-74710000D02*
X150853033Y-74676666D01*
X150853033Y-74676666D02*
X151019700Y-74676666D01*
X151019700Y-74676666D02*
X151086366Y-74710000D01*
X151086366Y-74710000D02*
X151119700Y-74743333D01*
X151119700Y-74743333D02*
X151153033Y-74810000D01*
X151153033Y-74810000D02*
X151153033Y-75010000D01*
X151153033Y-75010000D02*
X151119700Y-75076666D01*
X151119700Y-75076666D02*
X151086366Y-75110000D01*
X150519700Y-74409999D02*
X150486366Y-74376666D01*
X150486366Y-74376666D02*
X150453033Y-74309999D01*
X150453033Y-74309999D02*
X150453033Y-74143333D01*
X150453033Y-74143333D02*
X150486366Y-74076666D01*
X150486366Y-74076666D02*
X150519700Y-74043333D01*
X150519700Y-74043333D02*
X150586366Y-74009999D01*
X150586366Y-74009999D02*
X150653033Y-74009999D01*
X150653033Y-74009999D02*
X150753033Y-74043333D01*
X150753033Y-74043333D02*
X151153033Y-74443333D01*
X151153033Y-74443333D02*
X151153033Y-74009999D01*
X150453033Y-73709999D02*
X151019700Y-73709999D01*
X151019700Y-73709999D02*
X151086366Y-73676666D01*
X151086366Y-73676666D02*
X151119700Y-73643332D01*
X151119700Y-73643332D02*
X151153033Y-73576666D01*
X151153033Y-73576666D02*
X151153033Y-73443332D01*
X151153033Y-73443332D02*
X151119700Y-73376666D01*
X151119700Y-73376666D02*
X151086366Y-73343332D01*
X151086366Y-73343332D02*
X151019700Y-73309999D01*
X151019700Y-73309999D02*
X150453033Y-73309999D01*
X150686366Y-72676666D02*
X151153033Y-72676666D01*
X150419700Y-72843333D02*
X150919700Y-73009999D01*
X150919700Y-73009999D02*
X150919700Y-72576666D01*
D11*
%TO.C,REF\u002A\u002A*%
X133770000Y-95180000D02*
X170230000Y-95180000D01*
X133770000Y-98580000D02*
X133770000Y-95180000D01*
X134570000Y-99380000D02*
X133770000Y-98580000D01*
X170230000Y-95180000D02*
X170230000Y-99380000D01*
X170230000Y-99380000D02*
X134570000Y-99380000D01*
D10*
X155790000Y-56160000D02*
X155790000Y-65050000D01*
X148170000Y-56160000D02*
X155790000Y-56160000D01*
X160870000Y-57430000D02*
X160870000Y-87910000D01*
X143090000Y-57430000D02*
X160870000Y-57430000D01*
X155790000Y-65050000D02*
X148170000Y-65050000D01*
X148170000Y-65050000D02*
X148170000Y-56160000D01*
X155790000Y-71400000D02*
X148170000Y-71400000D01*
X148170000Y-71400000D02*
X148170000Y-79020000D01*
X155790000Y-79020000D02*
X155790000Y-71400000D01*
X148170000Y-79020000D02*
X155790000Y-79020000D01*
X154520000Y-81560000D02*
X151980000Y-81560000D01*
X151980000Y-81560000D02*
X150710000Y-81560000D01*
X150710000Y-81560000D02*
X150710000Y-85370000D01*
X149440000Y-81560000D02*
X146900000Y-81560000D01*
X146900000Y-81560000D02*
X146900000Y-85370000D01*
X154520000Y-85370000D02*
X154520000Y-81560000D01*
X150710000Y-85370000D02*
X154520000Y-85370000D01*
X149440000Y-85370000D02*
X149440000Y-81560000D01*
X146900000Y-85370000D02*
X149440000Y-85370000D01*
X160870000Y-87910000D02*
X143090000Y-87910000D01*
X143090000Y-87910000D02*
X143090000Y-57430000D01*
D12*
X152742000Y-77115000D02*
X152488000Y-76988000D01*
X152488000Y-73305000D01*
X152742000Y-73305000D01*
X152742000Y-77115000D01*
G36*
X152742000Y-77115000D02*
G01*
X152488000Y-76988000D01*
X152488000Y-73305000D01*
X152742000Y-73305000D01*
X152742000Y-77115000D01*
G37*
X153885000Y-76734000D02*
X153123000Y-76734000D01*
X153123000Y-77242000D01*
X152869000Y-77115000D01*
X152869000Y-76480000D01*
X153885000Y-76480000D01*
X153885000Y-76734000D01*
G36*
X153885000Y-76734000D02*
G01*
X153123000Y-76734000D01*
X153123000Y-77242000D01*
X152869000Y-77115000D01*
X152869000Y-76480000D01*
X153885000Y-76480000D01*
X153885000Y-76734000D01*
G37*
X153885000Y-73686000D02*
X153885000Y-74067000D01*
X152869000Y-74067000D01*
X152869000Y-73813000D01*
X153631000Y-73813000D01*
X152869000Y-73559000D01*
X152869000Y-73305000D01*
X153885000Y-73686000D01*
G36*
X153885000Y-73686000D02*
G01*
X153885000Y-74067000D01*
X152869000Y-74067000D01*
X152869000Y-73813000D01*
X153631000Y-73813000D01*
X152869000Y-73559000D01*
X152869000Y-73305000D01*
X153885000Y-73686000D01*
G37*
X154266000Y-73813000D02*
X154266000Y-76734000D01*
X154012000Y-76734000D01*
X154012000Y-74448000D01*
X152869000Y-74448000D01*
X152869000Y-74194000D01*
X154012000Y-74194000D01*
X154012000Y-73686000D01*
X154266000Y-73813000D01*
G36*
X154266000Y-73813000D02*
G01*
X154266000Y-76734000D01*
X154012000Y-76734000D01*
X154012000Y-74448000D01*
X152869000Y-74448000D01*
X152869000Y-74194000D01*
X154012000Y-74194000D01*
X154012000Y-73686000D01*
X154266000Y-73813000D01*
G37*
X153885000Y-75591000D02*
X152869000Y-75591000D01*
X152869000Y-75337000D01*
X153631000Y-75337000D01*
X153631000Y-75210000D01*
X152869000Y-75210000D01*
X152869000Y-74956000D01*
X153631000Y-74956000D01*
X153631000Y-74829000D01*
X152869000Y-74829000D01*
X152869000Y-74575000D01*
X153885000Y-74575000D01*
X153885000Y-75591000D01*
G36*
X153885000Y-75591000D02*
G01*
X152869000Y-75591000D01*
X152869000Y-75337000D01*
X153631000Y-75337000D01*
X153631000Y-75210000D01*
X152869000Y-75210000D01*
X152869000Y-74956000D01*
X153631000Y-74956000D01*
X153631000Y-74829000D01*
X152869000Y-74829000D01*
X152869000Y-74575000D01*
X153885000Y-74575000D01*
X153885000Y-75591000D01*
G37*
X153885000Y-76353000D02*
X153631000Y-76353000D01*
X153631000Y-75972000D01*
X153504000Y-75972000D01*
X153504000Y-76353000D01*
X153250000Y-76353000D01*
X153250000Y-75972000D01*
X153123000Y-75972000D01*
X153123000Y-76353000D01*
X152869000Y-76353000D01*
X152869000Y-75718000D01*
X153885000Y-75718000D01*
X153885000Y-76353000D01*
G36*
X153885000Y-76353000D02*
G01*
X153631000Y-76353000D01*
X153631000Y-75972000D01*
X153504000Y-75972000D01*
X153504000Y-76353000D01*
X153250000Y-76353000D01*
X153250000Y-75972000D01*
X153123000Y-75972000D01*
X153123000Y-76353000D01*
X152869000Y-76353000D01*
X152869000Y-75718000D01*
X153885000Y-75718000D01*
X153885000Y-76353000D01*
G37*
%TD*%
M02*
