%TF.GenerationSoftware,KiCad,Pcbnew,7.0.8*%
%TF.CreationDate,2023-11-08T21:29:47-08:00*%
%TF.ProjectId,ff,66662e6b-6963-4616-945f-706362585858,rev?*%
%TF.SameCoordinates,Original*%
%TF.FileFunction,Copper,L1,Top*%
%TF.FilePolarity,Positive*%
%FSLAX46Y46*%
G04 Gerber Fmt 4.6, Leading zero omitted, Abs format (unit mm)*
G04 Created by KiCad (PCBNEW 7.0.8) date 2023-11-08 21:29:47*
%MOMM*%
%LPD*%
G01*
G04 APERTURE LIST*
%TA.AperFunction,SMDPad,CuDef*%
%ADD10R,0.500000X3.200000*%
%TD*%
%TA.AperFunction,ComponentPad*%
%ADD11R,1.600000X1.600000*%
%TD*%
%TA.AperFunction,ComponentPad*%
%ADD12C,1.600000*%
%TD*%
%TA.AperFunction,Conductor*%
%ADD13C,0.250000*%
%TD*%
G04 APERTURE END LIST*
D10*
%TO.P,REF\u002A\u002A,1*%
%TO.N,N/C*%
X134520000Y-97280000D03*
%TO.P,REF\u002A\u002A,2*%
X136040000Y-97280000D03*
%TO.P,REF\u002A\u002A,3*%
X137560000Y-97280000D03*
%TO.P,REF\u002A\u002A,4*%
X139080000Y-97280000D03*
%TO.P,REF\u002A\u002A,5*%
X140600000Y-97280000D03*
%TO.P,REF\u002A\u002A,6*%
X142120000Y-97280000D03*
%TO.P,REF\u002A\u002A,7*%
X143640000Y-97280000D03*
%TO.P,REF\u002A\u002A,8*%
X145160000Y-97280000D03*
%TO.P,REF\u002A\u002A,9*%
X146680000Y-97280000D03*
%TO.P,REF\u002A\u002A,10*%
X148200000Y-97280000D03*
%TO.P,REF\u002A\u002A,11*%
X149720000Y-97280000D03*
%TO.P,REF\u002A\u002A,12*%
X151240000Y-97280000D03*
%TO.P,REF\u002A\u002A,13*%
X152760000Y-97280000D03*
%TO.P,REF\u002A\u002A,14*%
X154280000Y-97280000D03*
%TO.P,REF\u002A\u002A,15*%
X155800000Y-97280000D03*
%TO.P,REF\u002A\u002A,16*%
X157320000Y-97280000D03*
%TO.P,REF\u002A\u002A,17*%
X158840000Y-97280000D03*
%TO.P,REF\u002A\u002A,18*%
X160360000Y-97280000D03*
%TO.P,REF\u002A\u002A,19*%
X161880000Y-97280000D03*
%TO.P,REF\u002A\u002A,20*%
X163400000Y-97280000D03*
%TO.P,REF\u002A\u002A,21*%
X164920000Y-97280000D03*
%TO.P,REF\u002A\u002A,22*%
X166440000Y-97280000D03*
%TO.P,REF\u002A\u002A,23*%
X167960000Y-97280000D03*
%TO.P,REF\u002A\u002A,24*%
X169480000Y-97280000D03*
%TD*%
D11*
%TO.P,REF\u002A\u002A,1*%
%TO.N,N/C*%
X144360000Y-58700000D03*
D12*
%TO.P,REF\u002A\u002A,2*%
X144360000Y-61240000D03*
%TO.P,REF\u002A\u002A,3*%
X144360000Y-63780000D03*
%TO.P,REF\u002A\u002A,4*%
X144360000Y-66320000D03*
%TO.P,REF\u002A\u002A,5*%
X144360000Y-68860000D03*
%TO.P,REF\u002A\u002A,6*%
X144360000Y-71400000D03*
%TO.P,REF\u002A\u002A,7*%
X144360000Y-73940000D03*
%TO.P,REF\u002A\u002A,8*%
X144360000Y-76480000D03*
%TO.P,REF\u002A\u002A,9*%
X144360000Y-79020000D03*
%TO.P,REF\u002A\u002A,10*%
X144360000Y-81560000D03*
%TO.P,REF\u002A\u002A,11*%
X144360000Y-84100000D03*
%TO.P,REF\u002A\u002A,12*%
X144360000Y-86640000D03*
%TO.P,REF\u002A\u002A,13*%
X146900000Y-86640000D03*
%TO.P,REF\u002A\u002A,14*%
X149440000Y-86640000D03*
%TO.P,REF\u002A\u002A,15*%
X151980000Y-86640000D03*
%TO.P,REF\u002A\u002A,16*%
X154520000Y-86640000D03*
%TO.P,REF\u002A\u002A,17*%
X157060000Y-86640000D03*
%TO.P,REF\u002A\u002A,18*%
X159600000Y-86640000D03*
%TO.P,REF\u002A\u002A,19*%
X159600000Y-84100000D03*
%TO.P,REF\u002A\u002A,20*%
X159600000Y-81560000D03*
%TO.P,REF\u002A\u002A,21*%
X159600000Y-79020000D03*
%TO.P,REF\u002A\u002A,22*%
X159600000Y-76480000D03*
%TO.P,REF\u002A\u002A,23*%
X159600000Y-73940000D03*
%TO.P,REF\u002A\u002A,24*%
X159600000Y-71400000D03*
%TO.P,REF\u002A\u002A,25*%
X159600000Y-68860000D03*
%TO.P,REF\u002A\u002A,26*%
X159600000Y-66320000D03*
%TO.P,REF\u002A\u002A,27*%
X159600000Y-63780000D03*
%TO.P,REF\u002A\u002A,28*%
X159600000Y-61240000D03*
%TO.P,REF\u002A\u002A,29*%
X159600000Y-58700000D03*
%TO.P,REF\u002A\u002A,30*%
X146900000Y-68860000D03*
%TO.P,REF\u002A\u002A,31*%
X157060000Y-68860000D03*
%TD*%
D13*
%TO.N,*%
X130720000Y-79040000D02*
X139840000Y-69920000D01*
X155800000Y-97280000D02*
X155800000Y-91960000D01*
X171760000Y-88160000D02*
X171760000Y-82080000D01*
X148200000Y-97280000D02*
X148200000Y-91960000D01*
X140600000Y-95000000D02*
X135280000Y-89680000D01*
X132240000Y-80560000D02*
X141360000Y-71440000D01*
X146680000Y-97280000D02*
X146680000Y-95000000D01*
X141360000Y-69920000D02*
X142880000Y-68400000D01*
X140600000Y-97280000D02*
X140600000Y-95000000D01*
X164160000Y-83600000D02*
X161120000Y-80560000D01*
X152760000Y-97280000D02*
X152760000Y-88920000D01*
X173280000Y-88160000D02*
X173280000Y-82080000D01*
X161120000Y-77520000D02*
X160640000Y-77520000D01*
X148200000Y-91960000D02*
X147440000Y-91200000D01*
X129200000Y-89680000D02*
X129200000Y-79040000D01*
X138320000Y-69920000D02*
X138320000Y-66880000D01*
X157060000Y-87660000D02*
X157060000Y-86640000D01*
X164160000Y-88160000D02*
X164160000Y-83600000D01*
X162640000Y-77520000D02*
X162640000Y-76980000D01*
X161880000Y-93480000D02*
X167200000Y-88160000D01*
X136040000Y-97280000D02*
X136040000Y-95000000D01*
X157320000Y-93480000D02*
X162640000Y-88160000D01*
X145160000Y-97280000D02*
X145160000Y-95000000D01*
X166440000Y-93480000D02*
X171760000Y-88160000D01*
X141360000Y-79040000D02*
X141360000Y-77520000D01*
X165680000Y-69860000D02*
X159600000Y-63780000D01*
X149720000Y-90440000D02*
X148960000Y-89680000D01*
X158840000Y-93480000D02*
X164160000Y-88160000D01*
X142880000Y-68400000D02*
X142880000Y-67800000D01*
X162640000Y-65360000D02*
X162640000Y-62320000D01*
X141360000Y-77520000D02*
X142880000Y-76000000D01*
X158840000Y-97280000D02*
X158840000Y-93480000D01*
X142880000Y-65360000D02*
X142880000Y-65260000D01*
X146900000Y-87620000D02*
X146900000Y-86640000D01*
X173280000Y-82080000D02*
X165680000Y-74480000D01*
X134520000Y-95000000D02*
X129200000Y-89680000D01*
X170240000Y-88160000D02*
X170240000Y-82080000D01*
X162640000Y-84600000D02*
X159600000Y-81560000D01*
X148960000Y-89680000D02*
X144400000Y-89680000D01*
X141360000Y-74400000D02*
X144360000Y-71400000D01*
X139840000Y-79040000D02*
X139840000Y-77520000D01*
X165680000Y-82080000D02*
X161120000Y-77520000D01*
X160640000Y-77520000D02*
X159600000Y-76480000D01*
X138320000Y-83600000D02*
X142880000Y-79040000D01*
X137560000Y-95000000D02*
X132240000Y-89680000D01*
X164920000Y-97280000D02*
X164920000Y-93480000D01*
X164160000Y-70880000D02*
X159600000Y-66320000D01*
X147440000Y-88160000D02*
X146900000Y-87620000D01*
X163400000Y-97280000D02*
X163400000Y-93480000D01*
X139840000Y-77520000D02*
X141360000Y-76000000D01*
X162640000Y-88160000D02*
X162640000Y-84600000D01*
X169480000Y-93480000D02*
X174800000Y-88160000D01*
X146680000Y-95000000D02*
X141360000Y-89680000D01*
X133760000Y-89680000D02*
X133760000Y-80560000D01*
X157320000Y-97280000D02*
X157320000Y-93480000D01*
X155800000Y-91960000D02*
X156560000Y-91200000D01*
X139080000Y-95000000D02*
X133760000Y-89680000D01*
X138320000Y-66880000D02*
X138720000Y-66880000D01*
X154280000Y-97280000D02*
X154280000Y-90440000D01*
X167960000Y-93480000D02*
X173280000Y-88160000D01*
X142880000Y-79040000D02*
X142880000Y-77520000D01*
X137560000Y-97280000D02*
X137560000Y-95000000D01*
X142880000Y-69920000D02*
X143300000Y-69920000D01*
X138720000Y-66880000D02*
X144360000Y-61240000D01*
X158080000Y-89680000D02*
X159600000Y-88160000D01*
X154280000Y-90440000D02*
X155040000Y-89680000D01*
X142880000Y-67800000D02*
X144360000Y-66320000D01*
X143320000Y-77520000D02*
X144360000Y-76480000D01*
X132240000Y-89680000D02*
X132240000Y-80560000D01*
X136800000Y-83600000D02*
X141360000Y-79040000D01*
X135280000Y-89680000D02*
X135280000Y-83600000D01*
X165680000Y-88160000D02*
X165680000Y-82080000D01*
X162640000Y-71440000D02*
X162180000Y-71440000D01*
X135280000Y-83600000D02*
X139840000Y-79040000D01*
X139080000Y-97280000D02*
X139080000Y-95000000D01*
X130720000Y-89680000D02*
X130720000Y-79040000D01*
X144400000Y-91200000D02*
X142880000Y-89680000D01*
X168720000Y-88160000D02*
X168720000Y-82080000D01*
X143300000Y-69920000D02*
X144360000Y-68860000D01*
X174800000Y-82080000D02*
X171760000Y-79040000D01*
X142880000Y-71440000D02*
X142880000Y-69920000D01*
X174800000Y-88160000D02*
X174800000Y-82080000D01*
X171760000Y-74480000D02*
X162640000Y-65360000D01*
X159600000Y-88160000D02*
X159600000Y-86640000D01*
X142880000Y-89680000D02*
X142880000Y-85120000D01*
X141360000Y-89680000D02*
X141360000Y-84560000D01*
X166440000Y-97280000D02*
X166440000Y-93480000D01*
X152760000Y-88920000D02*
X153520000Y-88160000D01*
X161880000Y-97280000D02*
X161880000Y-93480000D01*
X133760000Y-80560000D02*
X142880000Y-71440000D01*
X141360000Y-84560000D02*
X144360000Y-81560000D01*
X161120000Y-80540000D02*
X159600000Y-79020000D01*
X142880000Y-77520000D02*
X143320000Y-77520000D01*
X144400000Y-89680000D02*
X144360000Y-89640000D01*
X161120000Y-85120000D02*
X160620000Y-85120000D01*
X141360000Y-76000000D02*
X141360000Y-74400000D01*
X139840000Y-69920000D02*
X139840000Y-68400000D01*
X134520000Y-97280000D02*
X134520000Y-95000000D01*
X167200000Y-82080000D02*
X162640000Y-77520000D01*
X162640000Y-74480000D02*
X162640000Y-71440000D01*
X164160000Y-74480000D02*
X164160000Y-70880000D01*
X142880000Y-75420000D02*
X144360000Y-73940000D01*
X170240000Y-82080000D02*
X162640000Y-74480000D01*
X151240000Y-97280000D02*
X151240000Y-88920000D01*
X143640000Y-97280000D02*
X143640000Y-95000000D01*
X156560000Y-88160000D02*
X157060000Y-87660000D01*
X145160000Y-95000000D02*
X139840000Y-89680000D01*
X153520000Y-88160000D02*
X156560000Y-88160000D01*
X165680000Y-74480000D02*
X165680000Y-69860000D01*
X142880000Y-80560000D02*
X142880000Y-80500000D01*
X168720000Y-82080000D02*
X161120000Y-74480000D01*
X129200000Y-79040000D02*
X138320000Y-69920000D01*
X147440000Y-91200000D02*
X144400000Y-91200000D01*
X164920000Y-93480000D02*
X170240000Y-88160000D01*
X149720000Y-97280000D02*
X149720000Y-90440000D01*
X158080000Y-91200000D02*
X161120000Y-88160000D01*
X139840000Y-83600000D02*
X142880000Y-80560000D01*
X142880000Y-76000000D02*
X142880000Y-75420000D01*
X161120000Y-88160000D02*
X161120000Y-85120000D01*
X171760000Y-79040000D02*
X171760000Y-74480000D01*
X161120000Y-72920000D02*
X159600000Y-71400000D01*
X143340000Y-85120000D02*
X144360000Y-84100000D01*
X171760000Y-82080000D02*
X164160000Y-74480000D01*
X163400000Y-93480000D02*
X168720000Y-88160000D01*
X160360000Y-93480000D02*
X165680000Y-88160000D01*
X156560000Y-91200000D02*
X158080000Y-91200000D01*
X142880000Y-80500000D02*
X144360000Y-79020000D01*
X161120000Y-74480000D02*
X161120000Y-72920000D01*
X169480000Y-97280000D02*
X169480000Y-93480000D01*
X142120000Y-95000000D02*
X136800000Y-89680000D01*
X139840000Y-68400000D02*
X142880000Y-65360000D01*
X138320000Y-89680000D02*
X138320000Y-83600000D01*
X162180000Y-71440000D02*
X159600000Y-68860000D01*
X162640000Y-62320000D02*
X161560000Y-61240000D01*
X161560000Y-61240000D02*
X159600000Y-61240000D01*
X167200000Y-88160000D02*
X167200000Y-82080000D01*
X141360000Y-71440000D02*
X141360000Y-69920000D01*
X162640000Y-76980000D02*
X159600000Y-73940000D01*
X142120000Y-97280000D02*
X142120000Y-95000000D01*
X136800000Y-89680000D02*
X136800000Y-83600000D01*
X161120000Y-80560000D02*
X161120000Y-80540000D01*
X144360000Y-89640000D02*
X144360000Y-86640000D01*
X142880000Y-85120000D02*
X143340000Y-85120000D01*
X160360000Y-97280000D02*
X160360000Y-93480000D01*
X139840000Y-89680000D02*
X139840000Y-83600000D01*
X167960000Y-97280000D02*
X167960000Y-93480000D01*
X143640000Y-95000000D02*
X138320000Y-89680000D01*
X155040000Y-89680000D02*
X158080000Y-89680000D01*
X160620000Y-85120000D02*
X159600000Y-84100000D01*
X150480000Y-88160000D02*
X147440000Y-88160000D01*
X136040000Y-95000000D02*
X130720000Y-89680000D01*
X142880000Y-65260000D02*
X144360000Y-63780000D01*
X151240000Y-88920000D02*
X150480000Y-88160000D01*
%TD*%
M02*
