%TF.GenerationSoftware,KiCad,Pcbnew,7.0.8*%
%TF.CreationDate,2023-11-08T21:29:47-08:00*%
%TF.ProjectId,ff,66662e6b-6963-4616-945f-706362585858,rev?*%
%TF.SameCoordinates,Original*%
%TF.FileFunction,Soldermask,Top*%
%TF.FilePolarity,Negative*%
%FSLAX46Y46*%
G04 Gerber Fmt 4.6, Leading zero omitted, Abs format (unit mm)*
G04 Created by KiCad (PCBNEW 7.0.8) date 2023-11-08 21:29:47*
%MOMM*%
%LPD*%
G01*
G04 APERTURE LIST*
%ADD10C,2.100000*%
%ADD11R,0.500000X3.200000*%
%ADD12R,1.600000X1.600000*%
%ADD13C,1.600000*%
G04 APERTURE END LIST*
D10*
%TO.C,REF\u002A\u002A*%
X130320000Y-98280000D03*
%TD*%
D11*
%TO.C,REF\u002A\u002A*%
X134520000Y-97280000D03*
X136040000Y-97280000D03*
X137560000Y-97280000D03*
X139080000Y-97280000D03*
X140600000Y-97280000D03*
X142120000Y-97280000D03*
X143640000Y-97280000D03*
X145160000Y-97280000D03*
X146680000Y-97280000D03*
X148200000Y-97280000D03*
X149720000Y-97280000D03*
X151240000Y-97280000D03*
X152760000Y-97280000D03*
X154280000Y-97280000D03*
X155800000Y-97280000D03*
X157320000Y-97280000D03*
X158840000Y-97280000D03*
X160360000Y-97280000D03*
X161880000Y-97280000D03*
X163400000Y-97280000D03*
X164920000Y-97280000D03*
X166440000Y-97280000D03*
X167960000Y-97280000D03*
X169480000Y-97280000D03*
%TD*%
D10*
%TO.C,REF\u002A\u002A*%
X172680000Y-97280000D03*
%TD*%
D12*
%TO.C,REF\u002A\u002A*%
X144360000Y-58700000D03*
D13*
X144360000Y-61240000D03*
X144360000Y-63780000D03*
X144360000Y-66320000D03*
X144360000Y-68860000D03*
X144360000Y-71400000D03*
X144360000Y-73940000D03*
X144360000Y-76480000D03*
X144360000Y-79020000D03*
X144360000Y-81560000D03*
X144360000Y-84100000D03*
X144360000Y-86640000D03*
X146900000Y-86640000D03*
X149440000Y-86640000D03*
X151980000Y-86640000D03*
X154520000Y-86640000D03*
X157060000Y-86640000D03*
X159600000Y-86640000D03*
X159600000Y-84100000D03*
X159600000Y-81560000D03*
X159600000Y-79020000D03*
X159600000Y-76480000D03*
X159600000Y-73940000D03*
X159600000Y-71400000D03*
X159600000Y-68860000D03*
X159600000Y-66320000D03*
X159600000Y-63780000D03*
X159600000Y-61240000D03*
X159600000Y-58700000D03*
X146900000Y-68860000D03*
X157060000Y-68860000D03*
%TD*%
M02*
