M48
; DRILL file {KiCad 7.0.8} date Wed Nov  8 21:29:44 2023
; FORMAT={-:-/ absolute / inch / decimal}
; #@! TF.CreationDate,2023-11-08T21:29:44-08:00
; #@! TF.GenerationSoftware,Kicad,Pcbnew,7.0.8
; #@! TF.FileFunction,Plated,1,2,PTH
FMAT,2
INCH
; #@! TA.AperFunction,Plated,PTH,ComponentDrill
T1C0.0433
%
G90
G05
T1
X5.6835Y-2.311
X5.6835Y-2.411
X5.6835Y-2.511
X5.6835Y-2.611
X5.6835Y-2.711
X5.6835Y-2.811
X5.6835Y-2.911
X5.6835Y-3.011
X5.6835Y-3.111
X5.6835Y-3.211
X5.6835Y-3.311
X5.6835Y-3.411
X5.7835Y-2.711
X5.7835Y-3.411
X5.8835Y-3.411
X5.9835Y-3.411
X6.0835Y-3.411
X6.1835Y-2.711
X6.1835Y-3.411
X6.2835Y-2.311
X6.2835Y-2.411
X6.2835Y-2.511
X6.2835Y-2.611
X6.2835Y-2.711
X6.2835Y-2.811
X6.2835Y-2.911
X6.2835Y-3.011
X6.2835Y-3.111
X6.2835Y-3.211
X6.2835Y-3.311
X6.2835Y-3.411
T0
M30
